# xmcd
# 
# Track frame offsets:
#     150
#     48975
#     77709
#     115193
# 
# Disc length: 2057
# 
# Revision: 1
# Processed by: cddbd v1.5.2PL0 Copyright (c) Steve Scherf et al.
# Submitted via: BonkEnc v1.0.15
# 
DISCID=28080704
DTITLE=John Coltrane - Coltrane Time
DYEAR=1958
DGENRE=Jazz
TTITLE0=Shifting Down
TTITLE1=Just Friends
TTITLE2=Like Someone In Love
TTITLE3=Double Clutching
EXTD=YEAR: 1958
EXTT0=
EXTT1=
EXTT2=
EXTT3=
PLAYORDER=
